# xmcd
#
# Track frame offsets:
#	150
#	13182
#	28990
#	40610
#	55390
#	70670
#	89692
#	106375
#	123252
#	134480
#	150837
#	163007
#	179597
#	196495
#	214267
#
# Disc length: 3053
#
# Revision: 3
# Processed by: cddbd v1.5.1PL0 Copyright (c) Steve Scherf et al.
# Submitted via: CDValet v3.01 - Copyright (c) 1997 Greg Leichner
# Normalized: r1:TDELIM( - ),TSWAP
#
DISCID=d50beb0f
DTITLE=Various Country Artists - Country Heat Christmas
DYEAR=1900
DGENRE=
TTITLE0=Alan Jackson - Honky Tonk Christmas
TTITLE1=Lonestar - I'll be home for Christmas
TTITLE2=Lorrie Morgan - Let it snow! Let it snow!
TTITLE3=John anderson - The Christmas song
TTITLE4=Alabama - Christmas memories
TTITLE5=Keith Whitley - There's a new kid in town
TTITLE6=K.T. Olsin - Blue Christmas
TTITLE7=The Tractors - Santa Claus is comin' to town
TTITLE8=Aaron Tippin - Rudolph the red-nosed reindeer
TTITLE9=Martina McBride - Oh Holy Night
TTITLE10=Clint Black - Til Santa's gone
TTITLE11=Lori White - White Christmas
TTITLE12=Restless heart - Little Drummer Boy
TTITLE13=Ray Vega - Take a walk through Bethlehem
TTITLE14=Joe Diffie - Leroy the redneck reindeer
EXTD=
EXTT0=
EXTT1=
EXTT2=
EXTT3=
EXTT4=
EXTT5=
EXTT6=
EXTT7=
EXTT8=
EXTT9=
EXTT10=
EXTT11=
EXTT12=
EXTT13=
EXTT14=
PLAYORDER=
